<svg width="200" height="211" viewBox="0 0 200 211" fill="none" xmlns="http://www.w3.org/2000/svg">
<circle cx="100" cy="100" r="100" fill="#002196"/>
<path d="M148.7 171.5C142.7 168 135.2 164.2 126.2 160.1C117.2 156.1 108.9 152.85 101.3 150.35C93.6 156.25 84.6 161.25 74.3 165.35C71.6 166.35 67.1 167.35 60.8 168.35C54.6 169.45 49.65 170 45.95 170L38 145.25C45 143.75 53.75 141.2 64.25 137.6C74.75 134 81.45 130.6 84.35 127.4C86.15 125.4 87.05 122.25 87.05 117.95V117.2H86.45C84.55 117.2 83.25 117.55 82.55 118.25L80.3 116.15C80.5 113.85 82.5 112.3 86.3 111.5C90.2 110.6 95.55 110.15 102.35 110.15C106.05 110.15 111.5 110.25 118.7 110.45C119 112.95 119.15 115.4 119.15 117.8C119.15 121.3 118.8 124.9 118.1 128.6C127.9 131.1 137.25 134.2 146.15 137.9C155.15 141.6 161.15 145 164.15 148.1L148.7 171.5ZM32 31.55C46.2 30.75 59.7 30.35 72.5 30.35C85.3 30.35 98.8 30.75 113 31.55V99.95C95.8 100.55 78.5 100.85 61.1 100.85C54.8 100.85 45.35 100.75 32.75 100.55C31.85 87.15 31.4 73.7 31.4 60.2C31.4 49.5 31.6 39.95 32 31.55ZM81.5 75.8V55.7H63.05C62.95 57.8 62.9 61.15 62.9 65.75C62.9 70.35 62.95 73.7 63.05 75.8H81.5ZM119.3 33.95C119.5 31.65 121.65 30.1 125.75 29.3C129.95 28.4 135.6 27.95 142.7 27.95C146.3 27.95 151.3 28.05 157.7 28.25C157.9 33.35 158.1 41.55 158.3 52.85H171.65L171.5 80H158.3C158.3 88.9 158.1 99.65 157.7 112.25L126.05 115.25V35H125.45C124.85 35 124.15 35.1 123.35 35.3C122.55 35.4 122 35.6 121.7 35.9L119.3 33.95Z" fill="white"/>
</svg>
